<?xml version="1.0" encoding="UTF-8"?>
<svg width="27px" height="27px" viewBox="0 0 27 27" version="1.1" xmlns="http://www.w3.org/2000/svg" xmlns:xlink="http://www.w3.org/1999/xlink">
    <title>facebook-logo-lowernav-27-desktop</title>
    <g id="Build-Kit" stroke="none" stroke-width="1" fill="none" fill-rule="evenodd">
        <path d="M27,13.582343 C27,6.08064516 20.9562188,0 13.5,0 C6.04378125,0 0,6.08064516 0,13.582343 C0,20.3616299 4.93678125,25.9804754 11.390625,27 L11.390625,17.508489 L7.9633125,17.508489 L7.9633125,13.582343 L11.390625,13.582343 L11.390625,10.589983 C11.390625,7.18590832 13.4063437,5.30560272 16.4894062,5.30560272 C17.9659687,5.30560272 19.5117188,5.5704584 19.5117188,5.5704584 L19.5117188,8.91341256 L17.809875,8.91341256 C16.1325,8.91341256 15.609375,9.96010187 15.609375,11.0356537 L15.609375,13.582343 L19.3539375,13.582343 L18.754875,17.508489 L15.609375,17.508489 L15.609375,27 C22.0632188,25.9804754 27,20.3616299 27,13.582343 Z" id="facebook-logo-lowernav-27-desktop" fill="#046183" fill-rule="nonzero"></path>
    </g>
</svg>