<?xml version="1.0" encoding="UTF-8"?>
<svg width="27px" height="27px" viewBox="0 0 27 27" version="1.1" xmlns="http://www.w3.org/2000/svg" xmlns:xlink="http://www.w3.org/1999/xlink">
    <title>instagram-logo-lowernav-27-desktop</title>
    <g id="Build-Kit" stroke="none" stroke-width="1" fill="none" fill-rule="evenodd">
        <path d="M20.25,0 C23.9779221,0 27,3.02207794 27,6.75 L27,20.25 C27,23.9779221 23.9779221,27 20.25,27 L6.75,27 C3.02207794,27 0,23.9779221 0,20.25 L0,6.75 C0,3.02207794 3.02207794,0 6.75,0 Z M20.25,2.53125 L6.75,2.53125 C4.42004871,2.53125 2.53125,4.42004871 2.53125,6.75 L2.53125,20.25 C2.53125,22.5799513 4.42004871,24.46875 6.75,24.46875 L20.25,24.46875 C22.5799513,24.46875 24.46875,22.5799513 24.46875,20.25 L24.46875,6.75 C24.46875,4.42004871 22.5799513,2.53125 20.25,2.53125 Z M13.5,6.64453125 C17.2861708,6.64453125 20.3554688,9.71382916 20.3554688,13.5 C20.3554688,17.2861708 17.2861708,20.3554688 13.5,20.3554688 C9.71382916,20.3554688 6.64453125,17.2861708 6.64453125,13.5 C6.64453125,9.71382916 9.71382916,6.64453125 13.5,6.64453125 Z M13.5,9.17578125 C11.1117999,9.17578125 9.17578125,11.1117999 9.17578125,13.5 C9.17578125,15.8882001 11.1117999,17.8242188 13.5,17.8242188 C15.8882001,17.8242188 17.8242188,15.8882001 17.8242188,13.5 C17.8242188,11.1117999 15.8882001,9.17578125 13.5,9.17578125 Z M20.7773438,4.53515625 C21.7093243,4.53515625 22.4648438,5.29067573 22.4648438,6.22265625 C22.4648438,7.15463677 21.7093243,7.91015625 20.7773438,7.91015625 C19.8453632,7.91015625 19.0898438,7.15463677 19.0898438,6.22265625 C19.0898438,5.29067573 19.8453632,4.53515625 20.7773438,4.53515625 Z" id="instagram-logo-lowernav-27-desktop" fill="#046183" fill-rule="nonzero"></path>
    </g>
</svg>