<svg width="102" height="64" viewBox="0 0 102 64" fill="none" xmlns="http://www.w3.org/2000/svg">
<path d="M28.3886 26.3671C27.6753 26.3671 26.8183 26.0729 26.2529 24.7458L22.673 16.3647C22.5506 16.1031 22.4833 15.819 22.4751 15.5301C22.4751 14.7173 23.1145 14.1289 23.9714 14.1289C24.439 14.1289 25.0262 14.3011 25.4199 15.3318L28.3625 22.9589H28.4125L31.4291 15.3144C31.8206 14.3076 32.41 14.1354 32.8515 14.1354C33.7106 14.1354 34.3 14.7238 34.3 15.4865C34.2918 15.7761 34.2244 16.0609 34.102 16.3233L30.5222 24.7524C29.9567 26.0729 29.0737 26.3671 28.3886 26.3671Z" fill="#C02C57"/>
<path d="M42.9194 28.6792C42.0342 30.841 40.9816 32.046 38.4544 32.046C37.2038 32.046 36.8362 31.3073 36.8362 30.7189C36.8287 30.4337 36.9236 30.1552 37.1036 29.9341C37.2836 29.7129 37.5367 29.5638 37.8171 29.5139C37.9713 29.4926 38.127 29.4845 38.2825 29.4899C39.0677 29.4899 39.8267 28.9974 40.3683 27.6463L40.9555 26.147L36.5165 16.3648C36.3962 16.0933 36.3297 15.8009 36.3208 15.504C36.3238 15.3159 36.3645 15.1303 36.4407 14.9584C36.5169 14.7864 36.6269 14.6316 36.7641 14.5033C36.9014 14.3749 37.0631 14.2756 37.2395 14.2113C37.416 14.1469 37.6035 14.1189 37.791 14.1289C38.3065 14.1289 38.8785 14.3468 39.2634 15.2839L42.4518 22.9262H42.5018L45.2487 15.358C45.6163 14.349 46.2057 14.1289 46.695 14.1289C47.5302 14.1289 48.1435 14.6694 48.1435 15.456C48.1365 15.7346 48.0783 16.0094 47.9717 16.2667L42.9194 28.6792Z" fill="#C02C57"/>
<path d="M52.6321 21.1833C52.7539 22.8547 54.2763 24.0838 55.9923 24.0838C56.9886 24.1115 57.9566 23.7496 58.6913 23.0748C59.1067 22.7305 59.3764 22.6564 59.6961 22.6564C59.8525 22.6503 60.0084 22.6766 60.154 22.7338C60.2997 22.791 60.432 22.8779 60.5425 22.9888C60.6531 23.0998 60.7395 23.2325 60.7963 23.3785C60.8531 23.5246 60.8791 23.6809 60.8727 23.8375C60.8657 24.0375 60.8187 24.234 60.7347 24.4155C60.6507 24.5971 60.5312 24.7599 60.3834 24.8944C59.2307 25.9993 57.9062 26.4917 56.0162 26.4917C52.3863 26.4917 49.6895 24.1557 49.6895 20.3225C49.6895 16.4894 52.3624 14.0029 55.9183 14.0029C58.7631 14.0029 61.0706 15.6264 61.5361 19.0913C61.56 19.3375 61.5839 19.5097 61.5839 19.7058C61.5839 20.7387 61.0206 21.1811 60.0397 21.1811L52.6321 21.1833ZM58.6652 19.0695C58.6652 17.5441 57.8083 16.217 55.8944 16.217C54.1545 16.217 52.7539 17.422 52.6321 19.0695H58.6652Z" fill="#C02C57"/>
<path d="M92.2326 13.2515C93.0902 13.2515 93.7854 12.5549 93.7854 11.6956C93.7854 10.8363 93.0902 10.1396 92.2326 10.1396C91.3749 10.1396 90.6797 10.8363 90.6797 11.6956C90.6797 12.5549 91.3749 13.2515 92.2326 13.2515Z" fill="#7EBCC6"/>
<path d="M71.7018 26.4915C70.0598 26.4915 68.5634 25.7528 67.8022 24.5738H67.7522V30.621C67.7522 32.0201 66.7713 32.2663 66.282 32.2663C65.7926 32.2663 64.8096 32.0201 64.8096 30.621V15.7025C64.8096 14.3753 65.7665 14.1291 66.208 14.1291C66.6495 14.1291 67.6391 14.3819 67.6391 15.7025V15.9966H67.713C68.3024 15.0618 69.6269 14.0049 71.7844 14.0049C75.1446 14.0049 77.5 16.7092 77.5 20.2003C77.4913 23.639 75.2838 26.4915 71.7018 26.4915ZM71.1189 16.415C68.9593 16.415 67.6587 18.4046 67.6587 20.2482C67.6587 22.0918 68.9636 24.0334 71.1189 24.0334C73.3982 24.0334 74.503 22.0417 74.503 20.2003C74.503 18.3589 73.3939 16.415 71.1189 16.415Z" fill="#C02C57"/>
<path d="M85.3644 26.3932C82.25 26.3932 81.5627 24.4755 81.5627 22.2136V16.709H80.6058C79.477 16.709 79.2812 15.9223 79.2812 15.5301C79.2812 15.1378 79.477 14.3489 80.6058 14.3489H81.5584V12.3092C81.5584 10.9582 82.5153 10.7119 83.0047 10.7119C83.494 10.7119 84.4531 10.9582 84.4531 12.3092V14.3489H86.2909C87.4197 14.3489 87.6154 15.1356 87.6154 15.5301C87.6154 15.9245 87.4197 16.709 86.2909 16.709H84.4531V22.1896C84.4531 23.3446 84.8446 23.9591 85.5797 23.9591C85.7364 23.9526 85.8926 23.9366 86.0473 23.9111C86.1609 23.8926 86.2759 23.8839 86.391 23.885C86.539 23.8777 86.6869 23.9012 86.8254 23.954C86.964 24.0067 87.0901 24.0876 87.1959 24.1916C87.3017 24.2956 87.3849 24.4204 87.4403 24.5581C87.4956 24.6958 87.5219 24.8436 87.5175 24.992C87.5161 25.2229 87.4483 25.4485 87.3221 25.6418C87.196 25.835 87.0169 25.9877 86.8064 26.0816C86.3552 26.2927 85.8623 26.3993 85.3644 26.3932Z" fill="#C02C57"/>
<path d="M92.2326 26.3671C91.7411 26.3671 90.7603 26.1231 90.7603 24.7218V15.7742C90.7603 14.3752 91.7411 14.1289 92.2326 14.1289C92.7242 14.1289 93.705 14.3752 93.705 15.7742V24.7218C93.705 26.1231 92.722 26.3671 92.2326 26.3671Z" fill="#C02C57"/>
<path d="M16.7598 9.92136L2.54691 1.46401C2.41262 1.39407 2.26327 1.35815 2.11193 1.35941C1.94322 1.36144 1.77804 1.40814 1.63315 1.49475C1.48825 1.58137 1.36879 1.70484 1.28687 1.85263C1.20495 2.00042 1.16348 2.16728 1.16668 2.33631C1.16987 2.50534 1.2176 2.67051 1.30504 2.81509L18.541 31.8155L16.7598 9.92136Z" fill="#F16464"/>
<path d="M23.9718 12.4777C24.7657 12.4777 26.2076 12.7718 26.9579 14.7418L27.7126 16.7031L34.6027 2.85445C34.6809 2.70924 34.7213 2.54659 34.7201 2.38157C34.7201 2.24909 34.694 2.11792 34.6432 1.99561C34.5924 1.8733 34.5179 1.76226 34.4241 1.66889C34.3304 1.57552 34.2191 1.50166 34.0967 1.45156C33.9743 1.40146 33.8432 1.37611 33.711 1.37697H17.1579C16.892 1.37697 16.637 1.48282 16.4489 1.67121C16.2609 1.85961 16.1553 2.11514 16.1553 2.38157L16.7599 9.92149L22.1101 13.0573C22.6557 12.6754 23.3063 12.4728 23.9718 12.4777Z" fill="#7EBCC6"/>
<path d="M21.1574 17.0151C20.9479 16.5481 20.8361 16.043 20.829 15.5311C20.8266 15.0457 20.9419 14.5669 21.1651 14.1361C21.3882 13.7052 21.7125 13.3352 22.11 13.0577L16.7598 9.92188L18.541 31.816C18.6245 31.9636 18.746 32.0862 18.8929 32.1708C19.0397 32.2555 19.2065 32.2992 19.3758 32.2975C19.5452 32.2957 19.7111 32.2485 19.8561 32.1607C20.0011 32.073 20.12 31.9479 20.2004 31.7985L24.1152 23.9405L21.1574 17.0151Z" fill="#C02C57"/>
<path d="M6.1357 55.0782L5.26575 55.8627C5.21298 55.9177 5.14165 55.9511 5.06566 55.9564C5.02781 55.9573 4.99017 55.9504 4.95512 55.9361C4.92006 55.9217 4.88836 55.9003 4.862 55.873C4.83564 55.8458 4.81519 55.8134 4.80196 55.7779C4.78872 55.7423 4.78298 55.7044 4.7851 55.6665C4.78706 55.6214 4.79901 55.5773 4.82007 55.5373C4.84113 55.4974 4.87079 55.4626 4.90689 55.4355L6.05523 54.4375C6.09845 54.386 6.15149 54.3437 6.21124 54.313C6.271 54.2823 6.33626 54.2639 6.40321 54.2588C6.50761 54.2588 6.70987 54.3089 6.70987 54.6162V60.075C6.70987 60.3648 6.51631 60.4171 6.41844 60.4171C6.32057 60.4171 6.127 60.3648 6.127 60.075L6.1357 55.0782Z" fill="#666666"/>
<path d="M9.80027 60.5108C8.36049 60.5108 7.92334 58.9156 7.92334 57.3466C7.92334 55.7776 8.35832 54.165 9.80027 54.165C11.2422 54.165 11.675 55.7754 11.675 57.3466C11.675 58.9178 11.2226 60.5108 9.80027 60.5108ZM9.80027 54.6837C8.78025 54.6837 8.51273 56.1437 8.51273 57.3466C8.51273 58.5495 8.78025 59.9812 9.80027 59.9812C10.8203 59.9812 11.0921 58.5474 11.0921 57.3466C11.0921 56.1459 10.8029 54.6837 9.80027 54.6837Z" fill="#666666"/>
<path d="M14.3374 60.5108C12.8976 60.5108 12.4604 58.9156 12.4604 57.3466C12.4604 55.7776 12.8954 54.165 14.3374 54.165C15.7793 54.165 16.2143 55.7754 16.2143 57.3466C16.2143 58.9178 15.7598 60.5108 14.3374 60.5108ZM14.3374 54.6837C13.3174 54.6837 13.052 56.1437 13.052 57.3466C13.052 58.5495 13.3174 59.9812 14.3374 59.9812C15.3574 59.9812 15.6227 58.5474 15.6227 57.3466C15.6227 56.1459 15.34 54.6837 14.3374 54.6837Z" fill="#666666"/>
<path d="M19.1087 57.2441C19.1087 57.0894 19.1087 56.8344 19.0913 56.6034C19.0851 56.5656 19.0874 56.5269 19.0981 56.4901C19.1087 56.4533 19.1274 56.4193 19.1529 56.3907C19.1783 56.3621 19.2098 56.3395 19.245 56.3247C19.2803 56.3098 19.3184 56.303 19.3566 56.3049C19.4458 56.3049 19.6154 56.3397 19.6241 56.6034L19.6415 57.0392H19.6568C19.7702 56.8045 19.9471 56.6065 20.1675 56.4678C20.3879 56.3291 20.6427 56.2552 20.903 56.2547C21.163 56.2454 21.4186 56.3233 21.6294 56.476C21.8402 56.6288 21.994 56.8477 22.0665 57.0981C22.1772 56.84 22.363 56.6214 22.5998 56.4709C22.8365 56.3204 23.113 56.2451 23.3932 56.2547C24.3567 56.2547 24.833 56.9085 24.833 57.9V60.101C24.833 60.3734 24.6459 60.4169 24.559 60.4169C24.472 60.4169 24.2827 60.3734 24.2827 60.101V58.1397C24.2827 57.3029 24.0152 56.7407 23.304 56.7407C22.5124 56.7407 22.2296 57.4816 22.2296 58.2247V60.0922C22.2296 60.3646 22.0426 60.4082 21.9534 60.4082C21.8643 60.4082 21.6794 60.3646 21.6794 60.0922V58.0199C21.6794 57.2441 21.5011 56.7407 20.7638 56.7407C20.2396 56.7407 19.6763 57.2354 19.6763 58.301V60.0922C19.6763 60.3646 19.4893 60.4082 19.4001 60.4082C19.3109 60.4082 19.1261 60.3646 19.1261 60.0922L19.1087 57.2441Z" fill="#666666"/>
<path d="M26.0489 61.5329C26.0477 61.497 26.0537 61.4611 26.0664 61.4275C26.0791 61.3939 26.0984 61.3631 26.1231 61.337C26.1477 61.3108 26.1773 61.2898 26.2101 61.2752C26.2429 61.2606 26.2783 61.2527 26.3142 61.2518C26.397 61.2572 26.4747 61.2938 26.5317 61.3542C26.8756 61.6879 27.332 61.88 27.8105 61.8925C28.898 61.8925 29.2894 61.1843 29.2894 60.3235V59.5717H29.2742C29.1207 59.8124 28.9091 60.0105 28.659 60.1476C28.4088 60.2847 28.1283 60.3564 27.8431 60.3562C26.6622 60.3562 25.8857 59.4845 25.8857 58.3274C25.8857 57.1702 26.6622 56.2637 27.8431 56.2637C28.1295 56.2623 28.4113 56.3345 28.6619 56.4734C28.9124 56.6122 29.1233 56.8131 29.2742 57.0569H29.2894V56.6211C29.2894 56.3487 29.4765 56.3051 29.5657 56.3051C29.6548 56.3051 29.8397 56.3487 29.8397 56.6211V60.3257C29.8397 61.1973 29.4613 62.4068 27.7866 62.4068C27.1904 62.4067 26.6149 62.1881 26.1685 61.7922C26.1308 61.7604 26.1006 61.7207 26.08 61.6759C26.0593 61.6311 26.0487 61.5823 26.0489 61.5329ZM27.9084 59.8615C28.7566 59.8615 29.3634 59.2317 29.3634 58.3099C29.3715 58.1114 29.3402 57.9132 29.2712 57.727C29.2023 57.5407 29.097 57.37 28.9617 57.2248C28.8263 57.0796 28.6634 56.9628 28.4826 56.8813C28.3018 56.7997 28.1066 56.755 27.9084 56.7496C26.9949 56.7496 26.4773 57.4731 26.4773 58.3099C26.4773 59.1467 26.9949 59.8615 27.9084 59.8615Z" fill="#666666"/>
<path d="M33.2131 54.3529C33.2255 54.3037 33.2534 54.2599 33.2925 54.2277C33.3316 54.1956 33.38 54.1768 33.4305 54.1742C33.4639 54.1724 33.4973 54.1775 33.5286 54.189C33.5599 54.2006 33.5886 54.2185 33.6128 54.2415C33.637 54.2646 33.6563 54.2923 33.6695 54.3231C33.6826 54.3538 33.6894 54.387 33.6894 54.4204C33.6873 54.4642 33.6792 54.5074 33.6654 54.549L31.3753 60.3238C31.3622 60.3726 31.3342 60.4161 31.2952 60.4482C31.2562 60.4802 31.2081 60.4992 31.1578 60.5025C31.1242 60.5046 31.0905 60.4997 31.0588 60.4881C31.0272 60.4765 30.9983 60.4585 30.974 60.4351C30.9497 60.4118 30.9305 60.3837 30.9175 60.3525C30.9046 60.3213 30.8983 60.2878 30.899 60.2541C30.9 60.2109 30.9081 60.1682 30.9229 60.1277L33.2131 54.3529Z" fill="#666666"/>
<path d="M34.2808 57.2441C34.2808 57.0894 34.2808 56.8344 34.2656 56.6034C34.2595 56.5661 34.2617 56.528 34.272 56.4917C34.2823 56.4554 34.3004 56.4218 34.3251 56.3933C34.3498 56.3648 34.3805 56.3421 34.4149 56.3268C34.4493 56.3115 34.4867 56.304 34.5244 56.3049C34.6135 56.3049 34.7832 56.3397 34.7897 56.6034L34.8071 57.0392H34.8223C34.9359 56.8047 35.113 56.6068 35.3333 56.4681C35.5536 56.3294 35.8084 56.2555 36.0685 56.2547C36.3285 56.2454 36.5842 56.3233 36.795 56.476C37.0058 56.6288 37.1596 56.8477 37.2321 57.0981C37.3428 56.84 37.5286 56.6214 37.7653 56.4709C38.0021 56.3204 38.2786 56.2451 38.5588 56.2547C39.5223 56.2547 39.9986 56.9085 39.9986 57.9V60.101C39.9986 60.3734 39.8137 60.4169 39.7245 60.4169C39.6354 60.4169 39.4483 60.3734 39.4483 60.101V58.1397C39.4483 57.3029 39.183 56.7407 38.4696 56.7407C37.678 56.7407 37.3952 57.4816 37.3952 58.2247V60.0922C37.3952 60.3646 37.2082 60.4082 37.119 60.4082C37.0298 60.4082 36.845 60.3646 36.845 60.0922V58.0199C36.845 57.2441 36.6666 56.7407 35.9315 56.7407C35.4052 56.7407 34.831 57.2354 34.831 58.301V60.0922C34.831 60.3646 34.6462 60.4082 34.557 60.4082C34.4678 60.4082 34.2808 60.3646 34.2808 60.0922V57.2441Z" fill="#666666"/>
<path d="M41.373 54.5987C41.373 54.3089 41.5688 54.2588 41.6645 54.2588C41.7602 54.2588 41.9559 54.3089 41.9559 54.5987V59.8113H44.3983C44.4704 59.8113 44.5396 59.84 44.5905 59.8911C44.6415 59.9422 44.6702 60.0115 44.6702 60.0837C44.6702 60.156 44.6415 60.2252 44.5905 60.2763C44.5396 60.3274 44.4704 60.3561 44.3983 60.3561H41.721C41.4883 60.3561 41.373 60.2363 41.373 59.99V54.5987Z" fill="#666666"/>
<path d="M49.5594 60.075C49.5594 60.3648 49.3659 60.4171 49.268 60.4171C49.1701 60.4171 48.9766 60.3648 48.9766 60.075V54.5987C48.9766 54.3089 49.1701 54.2588 49.268 54.2588C49.3659 54.2588 49.5594 54.3089 49.5594 54.5987V60.075Z" fill="#666666"/>
<path d="M51.4931 57.0482H51.5083C51.6323 56.8117 51.8183 56.6137 52.0464 56.4755C52.2744 56.3372 52.5358 56.264 52.8023 56.2637C53.7658 56.2637 54.2421 56.9174 54.2421 57.9089V60.1012C54.2421 60.3736 54.0573 60.4172 53.9681 60.4172C53.8789 60.4172 53.6919 60.3736 53.6919 60.1012V58.1399C53.6919 57.3031 53.457 56.7409 52.6653 56.7409C52.0825 56.7409 51.517 57.2356 51.517 58.3012V60.0925C51.517 60.3649 51.33 60.4084 51.2408 60.4084C51.1516 60.4084 50.9667 60.3649 50.9667 60.0925V57.2443C50.9667 57.0896 50.9667 56.7409 50.9515 56.6036C50.945 56.5663 50.9469 56.528 50.9571 56.4915C50.9672 56.4551 50.9853 56.4213 51.0101 56.3927C51.0349 56.3641 51.0657 56.3414 51.1004 56.3263C51.135 56.3111 51.1726 56.3039 51.2103 56.3051C51.2973 56.3051 51.4691 56.3399 51.4757 56.6036L51.4931 57.0482Z" fill="#666666"/>
<path d="M54.4618 62.1302C54.4578 62.0993 54.4604 62.0679 54.4695 62.0381C54.4786 62.0083 54.494 61.9808 54.5146 61.9575C54.5352 61.9341 54.5606 61.9155 54.589 61.9028C54.6174 61.8901 54.6482 61.8837 54.6793 61.884C54.7511 61.884 54.8402 61.908 54.9207 61.908C55.3557 61.908 55.4296 61.5593 55.4296 61.0559V56.6213C55.4296 56.3489 55.6167 56.3053 55.7058 56.3053C55.795 56.3053 55.9799 56.3489 55.9799 56.6213V61.1496C55.9799 61.7903 55.7624 62.4048 54.9055 62.4048C54.6467 62.4048 54.4618 62.3351 54.4618 62.1302ZM55.7145 55.2397C55.6329 55.244 55.5518 55.2238 55.4818 55.1815C55.4117 55.1392 55.356 55.0768 55.3216 55.0025C55.2873 54.9281 55.2761 54.8451 55.2893 54.7643C55.3025 54.6834 55.3397 54.6084 55.3959 54.5489C55.4521 54.4894 55.5248 54.4482 55.6047 54.4305C55.6845 54.4129 55.7678 54.4196 55.8438 54.4499C55.9198 54.4801 55.985 54.5325 56.031 54.6003C56.0769 54.6681 56.1016 54.7481 56.1017 54.83C56.1029 54.9353 56.0632 55.0369 55.9909 55.1134C55.9187 55.1899 55.8195 55.2352 55.7145 55.2397Z" fill="#666666"/>
<path d="M57.6719 58.5147C57.6637 58.8906 57.8048 59.2544 58.0642 59.5261C58.3235 59.7979 58.6799 59.9553 59.0551 59.9639C59.2636 59.9638 59.4695 59.917 59.6577 59.8269C59.8459 59.7368 60.0115 59.6056 60.1425 59.4431C60.1676 59.409 60.2004 59.3813 60.2382 59.3624C60.276 59.3435 60.3178 59.3338 60.36 59.3341C60.3936 59.3332 60.427 59.3392 60.4582 59.3517C60.4893 59.3642 60.5176 59.383 60.5412 59.4069C60.5649 59.4308 60.5834 59.4593 60.5956 59.4906C60.6078 59.5219 60.6135 59.5555 60.6123 59.5891C60.6113 59.6653 60.5818 59.7384 60.5297 59.7939C60.3494 60.0074 60.1239 60.1778 59.8695 60.2928C59.6152 60.4077 59.3384 60.4644 59.0594 60.4586C57.935 60.4586 57.1021 59.5629 57.1021 58.36C57.1021 57.1571 57.935 56.2637 59.0094 56.2637C60.0838 56.2637 60.8211 57.0395 60.8211 58.2249C60.8269 58.2655 60.8232 58.3068 60.8103 58.3457C60.7974 58.3846 60.7756 58.4199 60.7467 58.4489C60.7178 58.4779 60.6825 58.4997 60.6437 58.5127C60.6049 58.5256 60.5636 58.5293 60.5232 58.5235L57.6719 58.5147ZM60.26 58.0528C60.2274 57.3031 59.7902 56.7453 59.0051 56.7453C58.6605 56.7559 58.3326 56.8965 58.0871 57.1389C57.8415 57.3813 57.6963 57.7077 57.6806 58.0528H60.26Z" fill="#666666"/>
<path d="M64.788 59.491C64.8203 59.4904 64.8524 59.4964 64.8824 59.5086C64.9124 59.5208 64.9395 59.5389 64.9623 59.562C64.9851 59.585 65.003 59.6124 65.0149 59.6425C65.0268 59.6726 65.0324 59.7049 65.0315 59.7373C65.0303 59.7783 65.0211 59.8186 65.0043 59.856C64.9875 59.8934 64.9635 59.9271 64.9337 59.9552C64.7683 60.1227 64.5701 60.254 64.3514 60.3406C64.1328 60.4273 63.8985 60.4675 63.6635 60.4586C62.4434 60.4586 61.6431 59.5629 61.6431 58.36C61.6431 57.1571 62.4434 56.2637 63.6635 56.2637C64.1166 56.2618 64.5535 56.4324 64.8858 56.7409C64.9178 56.7699 64.9436 56.8052 64.9616 56.8445C64.9795 56.8839 64.9893 56.9265 64.9902 56.9697C64.9908 57.0031 64.9848 57.0363 64.9725 57.0673C64.9602 57.0983 64.9419 57.1266 64.9186 57.1505C64.8954 57.1744 64.8676 57.1935 64.837 57.2066C64.8064 57.2197 64.7734 57.2266 64.7401 57.2269C64.6683 57.2269 64.6118 57.2094 64.4661 57.0634C64.2526 56.8588 63.9676 56.7461 63.6722 56.7496C62.7914 56.7496 62.2259 57.4492 62.2259 58.36C62.2259 59.2709 62.7827 59.9639 63.6635 59.9639C63.8318 59.9695 63.9994 59.9398 64.1556 59.8768C64.3117 59.8138 64.4531 59.7187 64.5705 59.5978C64.5978 59.5664 64.6312 59.5408 64.6685 59.5225C64.7058 59.5042 64.7464 59.4935 64.788 59.491Z" fill="#666666"/>
<path d="M67.2632 60.4087C66.8587 60.4087 66.2933 60.2213 66.2933 59.3409V56.8523H65.7104C65.6458 56.8523 65.5838 56.8266 65.5381 56.7808C65.4925 56.7351 65.4668 56.673 65.4668 56.6082C65.4668 56.5435 65.4925 56.4814 65.5381 56.4357C65.5838 56.3899 65.6458 56.3642 65.7104 56.3642H66.2933V55.4925C66.2933 55.2201 66.4803 55.1787 66.5695 55.1787C66.6586 55.1787 66.8435 55.2201 66.8435 55.4925V56.3642H67.7134C67.7781 56.3642 67.84 56.3899 67.8857 56.4357C67.9314 56.4814 67.957 56.5435 67.957 56.6082C67.957 56.673 67.9314 56.7351 67.8857 56.7808C67.84 56.8266 67.7781 56.8523 67.7134 56.8523H66.8435V59.1797C66.8435 59.7593 67.061 59.9141 67.3937 59.9141C67.4747 59.9123 67.5545 59.8945 67.6286 59.8618C67.6645 59.8464 67.7028 59.8376 67.7417 59.8356C67.7722 59.8354 67.8024 59.8417 67.8303 59.854C67.8582 59.8663 67.8832 59.8843 67.9037 59.9069C67.9243 59.9295 67.9398 59.9562 67.9493 59.9852C67.9589 60.0142 67.9623 60.0449 67.9592 60.0753C67.9564 60.1304 67.9373 60.1834 67.9044 60.2276C67.8715 60.2718 67.8262 60.3053 67.7743 60.3237C67.6106 60.383 67.4374 60.4118 67.2632 60.4087Z" fill="#666666"/>
<path d="M69.1311 55.2398C69.0495 55.2437 68.9686 55.2231 68.8988 55.1805C68.8291 55.1379 68.7736 55.0754 68.7397 55.001C68.7057 54.9265 68.6948 54.8436 68.7083 54.7629C68.7218 54.6822 68.7591 54.6074 68.8154 54.5481C68.8717 54.4888 68.9445 54.4478 69.0243 54.4303C69.1041 54.4129 69.1873 54.4198 69.2631 54.4501C69.339 54.4805 69.404 54.5329 69.4499 54.6006C69.4957 54.6683 69.5203 54.7483 69.5204 54.8301C69.5221 54.9359 69.4823 55.0382 69.4095 55.1149C69.3366 55.1915 69.2366 55.2364 69.1311 55.2398ZM69.1311 60.4175C69.0419 60.4175 68.8571 60.3739 68.8571 60.1015V56.6148C68.8571 56.3425 69.0419 56.2989 69.1311 56.2989C69.2202 56.2989 69.4073 56.3425 69.4073 56.6148V60.1015C69.4073 60.3739 69.2202 60.4175 69.1311 60.4175Z" fill="#666666"/>
<path d="M72.5286 60.4586C71.3563 60.4586 70.5146 59.5629 70.5146 58.36C70.5146 57.1571 71.3563 56.2637 72.5286 56.2637C73.7009 56.2637 74.5512 57.1593 74.5512 58.36C74.5512 59.5608 73.7096 60.4586 72.5286 60.4586ZM72.5286 56.754C71.6586 56.754 71.0975 57.4687 71.0975 58.3644C71.0975 59.26 71.6543 59.9683 72.5286 59.9683C73.4029 59.9683 73.9684 59.26 73.9684 58.3644C73.9684 57.4687 73.4094 56.7496 72.5286 56.7496V56.754Z" fill="#666666"/>
<path d="M76.1758 57.0482H76.1932C76.3167 56.8114 76.5027 56.6131 76.7308 56.4748C76.959 56.3365 77.2206 56.2635 77.4872 56.2637C78.4485 56.2637 78.927 56.9174 78.927 57.9089V60.1012C78.927 60.3736 78.74 60.4172 78.6508 60.4172C78.5616 60.4172 78.3768 60.3736 78.3768 60.1012V58.1399C78.3768 57.3031 78.1419 56.7409 77.348 56.7409C76.7673 56.7409 76.1997 57.2356 76.1997 58.3012V60.0925C76.1997 60.3649 76.0148 60.4084 75.9257 60.4084C75.8365 60.4084 75.6516 60.3649 75.6516 60.0925V57.2443C75.6516 57.0896 75.6516 56.7409 75.6342 56.6036C75.6281 56.5664 75.6303 56.5282 75.6406 56.4919C75.6509 56.4556 75.669 56.422 75.6937 56.3935C75.7184 56.365 75.7491 56.3423 75.7835 56.327C75.818 56.3118 75.8554 56.3043 75.893 56.3051C75.9822 56.3051 76.1518 56.3399 76.1605 56.6036L76.1758 57.0482Z" fill="#666666"/>
<path d="M81.789 56.8519C81.7244 56.8519 81.6624 56.8262 81.6168 56.7804C81.5711 56.7347 81.5454 56.6726 81.5454 56.6078C81.5454 56.5431 81.5711 56.481 81.6168 56.4353C81.6624 56.3895 81.7244 56.3638 81.789 56.3638H82.3806V55.2742C82.3806 54.372 82.8003 53.8076 83.6659 53.8076C84.1009 53.8076 84.127 53.9798 84.127 54.0822C84.1286 54.1168 84.1225 54.1514 84.1093 54.1835C84.0961 54.2156 84.0761 54.2444 84.0506 54.2678C84.0251 54.2913 83.9947 54.3089 83.9617 54.3194C83.9287 54.3298 83.8938 54.3329 83.8595 54.3284C83.8116 54.3284 83.7312 54.3284 83.642 54.3284C83.0504 54.3284 82.9286 54.7643 82.9286 55.3526V56.3747H83.6181C83.6827 56.3747 83.7446 56.4004 83.7903 56.4462C83.836 56.4919 83.8617 56.554 83.8617 56.6187C83.8617 56.6835 83.836 56.7456 83.7903 56.7913C83.7446 56.8371 83.6827 56.8628 83.6181 56.8628H82.9286V60.101C82.9286 60.3734 82.7438 60.417 82.6546 60.417C82.5654 60.417 82.3806 60.3734 82.3806 60.101V56.8519H81.789Z" fill="#666666"/>
<path d="M86.263 60.4586C85.0885 60.4586 84.249 59.5629 84.249 58.36C84.249 57.1571 85.0885 56.2637 86.263 56.2637C87.4374 56.2637 88.2834 57.1593 88.2834 58.36C88.2834 59.5608 87.4418 60.4586 86.263 60.4586ZM86.263 56.754C85.393 56.754 84.8297 57.4687 84.8297 58.3644C84.8297 59.26 85.3887 59.9683 86.263 59.9683C87.1373 59.9683 87.7027 59.26 87.7027 58.3644C87.7027 57.4687 87.1438 56.7496 86.263 56.7496V56.754Z" fill="#666666"/>
<path d="M89.6599 60.4171C89.5708 60.4171 89.3837 60.3735 89.3837 60.1011V57.2442C89.3837 57.0895 89.3837 56.7408 89.3685 56.6035C89.362 56.5662 89.3639 56.5279 89.3741 56.4914C89.3842 56.455 89.4023 56.4212 89.4271 56.3926C89.4519 56.364 89.4827 56.3413 89.5173 56.3262C89.552 56.311 89.5896 56.3038 89.6273 56.305C89.7143 56.305 89.8861 56.3398 89.8927 56.6035L89.9101 57.0393H89.9253C90.0319 56.8063 90.2027 56.6086 90.4178 56.4696C90.6328 56.3306 90.883 56.2561 91.1389 56.2548C91.2185 56.2504 91.2983 56.2615 91.3738 56.2875C91.4199 56.3055 91.4593 56.3374 91.4865 56.3788C91.5138 56.4202 91.5276 56.469 91.526 56.5185C91.5286 56.5576 91.5224 56.5968 91.5081 56.6333C91.4938 56.6697 91.4716 56.7026 91.4431 56.7294C91.4147 56.7563 91.3806 56.7765 91.3434 56.7887C91.3062 56.8008 91.2668 56.8045 91.228 56.7996C91.1476 56.7996 91.0976 56.7996 91.041 56.7996C90.4603 56.7996 89.934 57.2355 89.934 58.3098V60.1011C89.934 60.3735 89.7469 60.4171 89.6599 60.4171Z" fill="#666666"/>
<path d="M94.608 60.075C94.608 60.3648 94.4145 60.4171 94.3166 60.4171C94.2187 60.4171 94.0273 60.3648 94.0273 60.075V54.5987C94.0273 54.3089 94.2209 54.2588 94.3166 54.2588C94.4123 54.2588 94.608 54.3089 94.608 54.5987V60.075Z" fill="#666666"/>
<path d="M98.3768 60.0664C98.2637 60.3824 98.0941 60.4173 97.9657 60.4173C97.8374 60.4173 97.6656 60.3824 97.5525 60.0664L95.5951 54.7449C95.5706 54.6822 95.5566 54.616 95.5538 54.5488C95.5529 54.5103 95.5598 54.472 95.5742 54.4363C95.5885 54.4006 95.61 54.3681 95.6373 54.341C95.6645 54.3139 95.6971 54.2926 95.7328 54.2785C95.7686 54.2644 95.8068 54.2577 95.8452 54.2589C95.9101 54.2586 95.9732 54.2798 96.0247 54.3193C96.0763 54.3587 96.1133 54.4141 96.1301 54.4768L97.9657 59.5521H97.981L99.8079 54.4768C99.8247 54.4141 99.8617 54.3587 99.9133 54.3193C99.9648 54.2798 100.028 54.2586 100.093 54.2589C100.131 54.2577 100.169 54.2644 100.205 54.2785C100.241 54.2927 100.273 54.314 100.3 54.3411C100.327 54.3683 100.348 54.4007 100.362 54.4364C100.377 54.4721 100.383 54.5104 100.382 54.5488C100.38 54.6159 100.367 54.6822 100.343 54.7449L98.3768 60.0664Z" fill="#666666"/>
<path d="M6.58341 36.697C6.70086 36.4965 6.8183 36.4551 6.914 36.4551C6.96697 36.4583 7.01874 36.4723 7.06612 36.4962C7.11349 36.5202 7.15548 36.5536 7.18949 36.5944C7.22351 36.6353 7.24884 36.6826 7.26392 36.7336C7.279 36.7846 7.28352 36.8381 7.2772 36.8909C7.27224 37.0064 7.2402 37.1192 7.18368 37.22C6.28913 38.9476 5.82218 40.8654 5.82218 42.8117C5.82218 44.758 6.28913 46.6758 7.18368 48.4035C7.2403 48.505 7.27233 48.6185 7.2772 48.7347C7.28352 48.7875 7.279 48.841 7.26392 48.892C7.24884 48.943 7.22351 48.9904 7.18949 49.0312C7.15548 49.072 7.11349 49.1054 7.06612 49.1294C7.01874 49.1533 6.96697 49.1673 6.914 49.1705C6.8183 49.1705 6.69651 49.127 6.58341 48.9265C5.57545 47.0489 5.04785 44.9502 5.04785 42.8183C5.04785 40.6863 5.57545 38.5876 6.58341 36.71V36.697Z" fill="#666666"/>
<path d="M8.46273 43.8379C8.48666 45.1846 9.33269 46.2764 10.468 46.2764C10.7827 46.2695 11.0912 46.1867 11.3672 46.035C11.6432 45.8833 11.8786 45.667 12.0535 45.4047C12.0849 45.3509 12.1291 45.3058 12.1823 45.2734C12.2355 45.2411 12.2958 45.2225 12.358 45.2195C12.411 45.2223 12.463 45.2361 12.5105 45.26C12.558 45.2839 12.6002 45.3173 12.6342 45.3582C12.6683 45.3991 12.6936 45.4466 12.7086 45.4977C12.7235 45.5488 12.7278 45.6024 12.7212 45.6553C12.721 45.7721 12.6837 45.8859 12.6146 45.98C12.3763 46.3265 12.0572 46.6094 11.685 46.8042C11.3128 46.999 10.8988 47.0998 10.4789 47.0979C8.84769 47.0979 7.64062 45.5921 7.64062 43.572C7.64062 41.5519 8.84769 40.0439 10.4093 40.0439C11.9708 40.0439 13.0387 41.3514 13.0387 43.328C13.0387 43.657 12.8973 43.8292 12.6037 43.8292L8.46273 43.8379ZM12.2166 43.0643C12.1709 41.8025 11.5358 40.8699 10.3984 40.8699C9.33051 40.8699 8.54538 41.9159 8.47361 43.0643H12.2166Z" fill="#666666"/>
<path d="M17.3336 47.1067C16.9045 47.0915 16.4872 46.9625 16.1241 46.7328C15.7611 46.5031 15.4655 46.1809 15.2675 45.7992H15.224V49.9396C15.224 50.3973 14.9543 50.4692 14.8238 50.4692C14.6933 50.4692 14.4258 50.3973 14.4258 49.9396V40.6542C14.4258 40.1966 14.6955 40.1246 14.8238 40.1246C14.9521 40.1246 15.224 40.1966 15.224 40.6542V41.3864H15.2588C15.449 40.9964 15.7421 40.666 16.1063 40.4309C16.4705 40.1959 16.8919 40.0651 17.3249 40.0527C19.0365 40.0527 20.1523 41.6021 20.1523 43.5808C20.1523 45.5595 19.0452 47.1067 17.3336 47.1067ZM17.251 40.8699C16.0178 40.8699 15.1391 42.0467 15.1391 43.5808C15.1391 45.1149 16.0091 46.2764 17.251 46.2764C18.5776 46.2764 19.328 45.0714 19.328 43.5808C19.328 42.0903 18.5776 40.8699 17.251 40.8699Z" fill="#666666"/>
<path d="M23.1408 47.0212C22.5557 47.0212 21.7336 46.7053 21.7336 45.2278V41.0416H20.8898C20.838 41.0427 20.7866 41.0329 20.7388 41.0128C20.6911 40.9927 20.6481 40.9628 20.6126 40.925C20.5772 40.8872 20.55 40.8423 20.5329 40.7934C20.5159 40.7444 20.5092 40.6923 20.5135 40.6406C20.5077 40.5879 20.5131 40.5344 20.5294 40.4839C20.5457 40.4334 20.5725 40.3869 20.6081 40.3476C20.6436 40.3082 20.6871 40.2769 20.7357 40.2557C20.7843 40.2344 20.8368 40.2238 20.8898 40.2244H21.7336V38.7622C21.7336 38.3024 22.0033 38.2305 22.1338 38.2305C22.2643 38.2305 22.5318 38.3024 22.5318 38.7622V40.2244H23.7867C23.8397 40.2238 23.8922 40.2344 23.9408 40.2557C23.9894 40.2769 24.0329 40.3082 24.0685 40.3476C24.104 40.3869 24.1309 40.4334 24.1471 40.4839C24.1634 40.5344 24.1688 40.5879 24.163 40.6406C24.1673 40.6923 24.1606 40.7444 24.1436 40.7934C24.1265 40.8423 24.0994 40.8872 24.0639 40.925C24.0284 40.9628 23.9854 40.9927 23.9377 41.0128C23.8899 41.0329 23.8385 41.0427 23.7867 41.0416H22.5318V44.9641C22.5318 45.9404 22.8602 46.1975 23.33 46.1975C23.448 46.1947 23.5639 46.1657 23.6693 46.1125C23.7207 46.0866 23.7771 46.0718 23.8346 46.0689C24.0216 46.0689 24.1521 46.2258 24.1521 46.4699C24.1504 46.5579 24.1239 46.6435 24.0759 46.7171C24.0278 46.7908 23.96 46.8493 23.8803 46.8861C23.6461 46.9832 23.3941 47.0293 23.1408 47.0212Z" fill="#666666"/>
<path d="M25.5702 38.3312C25.4286 38.3595 25.2816 38.3433 25.1496 38.2847C25.0175 38.226 24.9067 38.1279 24.8325 38.0037C24.7582 37.8796 24.7241 37.7354 24.7348 37.5911C24.7455 37.4467 24.8005 37.3093 24.8923 37.1975C24.984 37.0856 25.108 37.005 25.2473 36.9666C25.3866 36.9282 25.5343 36.9338 25.6703 36.9828C25.8062 37.0318 25.9237 37.1217 26.0066 37.2402C26.0896 37.3587 26.1339 37.5 26.1335 37.6448C26.1465 37.81 26.095 37.9738 25.99 38.1018C25.8849 38.2298 25.7345 38.312 25.5702 38.3312ZM25.5702 47.0348C25.4419 47.0348 25.1722 46.9629 25.1722 46.5053V40.6542C25.1722 40.1966 25.4419 40.1247 25.5702 40.1247C25.6986 40.1247 25.9704 40.1966 25.9704 40.6542V46.5053C25.9704 46.9629 25.7007 47.0348 25.5702 47.0348Z" fill="#666666"/>
<path d="M28.5039 41.371H28.5278C28.6822 40.9954 28.9413 40.6723 29.2742 40.4404C29.607 40.2085 29.9995 40.0777 30.4047 40.0635C31.801 40.0635 32.4948 41.1683 32.4948 42.831V46.516C32.4948 46.9736 32.2251 47.0455 32.0946 47.0455C31.9641 47.0455 31.6966 46.9736 31.6966 46.516V43.2211C31.6966 41.8155 31.3551 40.8698 30.2068 40.8698C29.3608 40.8698 28.5408 41.7022 28.5408 43.4848V46.4964C28.5408 46.954 28.269 47.0259 28.1406 47.0259C28.0123 47.0259 27.7426 46.954 27.7426 46.4964V41.7022C27.7426 41.4429 27.7296 40.8545 27.7187 40.6257C27.7057 40.1899 27.9775 40.1245 28.0928 40.1245C28.2081 40.1245 28.4691 40.1811 28.4799 40.6257L28.5039 41.371Z" fill="#666666"/>
<path d="M34.6894 43.8378C34.7112 45.1845 35.5594 46.2763 36.6947 46.2763C37.0094 46.2695 37.3179 46.1867 37.5939 46.0349C37.8699 45.8832 38.1053 45.667 38.2802 45.4046C38.3115 45.3508 38.3558 45.3057 38.409 45.2734C38.4621 45.241 38.5225 45.2225 38.5846 45.2194C38.6377 45.2223 38.6897 45.2361 38.7372 45.2599C38.7847 45.2838 38.8268 45.3172 38.8609 45.3581C38.895 45.399 38.9203 45.4465 38.9353 45.4976C38.9502 45.5487 38.9545 45.6024 38.9479 45.6552C38.9489 45.78 38.9075 45.9015 38.8304 45.9995C38.5921 46.346 38.273 46.6289 37.9008 46.8237C37.5286 47.0185 37.1146 47.1194 36.6947 47.1174C35.0635 47.1174 33.8564 45.6116 33.8564 43.5915C33.8564 41.5715 35.0635 40.0635 36.6251 40.0635C38.1866 40.0635 39.2545 41.371 39.2545 43.3475C39.2545 43.6765 39.1131 43.8487 38.8195 43.8487L34.6894 43.8378ZM38.4433 43.0642C38.3976 41.8024 37.7625 40.8698 36.6251 40.8698C35.5572 40.8698 34.7721 41.9158 34.7003 43.0642H38.4433Z" fill="#666666"/>
<path d="M40.2983 46.935C40.2439 46.9345 40.1902 46.9225 40.1407 46.8996C40.0913 46.8768 40.0473 46.8436 40.0117 46.8023C39.9761 46.7611 39.9497 46.7127 39.9342 46.6604C39.9188 46.6081 39.9146 46.5532 39.922 46.4991C39.9269 46.3321 39.9848 46.171 40.0873 46.0393L43.3366 41.0272H40.4527C40.3999 41.0276 40.3476 41.0167 40.2993 40.9953C40.251 40.9739 40.2078 40.9426 40.1724 40.9032C40.1371 40.8639 40.1105 40.8176 40.0943 40.7672C40.0781 40.7168 40.0728 40.6636 40.0786 40.611C40.074 40.5594 40.0803 40.5074 40.0972 40.4584C40.114 40.4095 40.1409 40.3646 40.1762 40.3267C40.2115 40.2889 40.2544 40.259 40.302 40.2388C40.3497 40.2187 40.401 40.2089 40.4527 40.21H44.0434C44.0979 40.2105 44.1516 40.2225 44.201 40.2454C44.2504 40.2682 44.2944 40.3014 44.33 40.3427C44.3656 40.3839 44.392 40.4323 44.4075 40.4846C44.423 40.5369 44.4271 40.5919 44.4197 40.6459C44.4149 40.8129 44.357 40.974 44.2544 41.1057L41.0138 46.0894H44.15C44.2035 46.0886 44.2566 46.0991 44.3058 46.1201C44.355 46.1411 44.3993 46.1722 44.4358 46.2114C44.4723 46.2507 44.5001 46.2971 44.5176 46.3478C44.5351 46.3985 44.5417 46.4522 44.5371 46.5057C44.5443 46.5605 44.5396 46.6163 44.5234 46.6692C44.5072 46.7221 44.4797 46.7709 44.443 46.8123C44.4063 46.8536 44.3611 46.8865 44.3106 46.9088C44.26 46.9311 44.2053 46.9423 44.15 46.9415L40.2983 46.935Z" fill="#666666"/>
<path d="M50.2834 45.4574C50.2834 45.7167 50.2964 46.3051 50.3073 46.5339C50.3182 46.9698 50.0485 47.0351 49.931 47.0351C49.8136 47.0351 49.557 46.9785 49.5439 46.5339C49.533 46.2615 49.5222 45.9739 49.5222 45.7887H49.4982C49.3432 46.1643 49.0837 46.4873 48.7505 46.7191C48.4173 46.951 48.0245 47.0818 47.6191 47.0962C46.2229 47.0962 45.5312 45.9935 45.5312 44.3286V40.6545C45.5312 40.1969 45.8009 40.125 45.9314 40.125C46.0619 40.125 46.3294 40.1969 46.3294 40.6545V43.9385C46.3294 45.3441 46.6687 46.2899 47.8192 46.2899C48.6653 46.2899 49.4852 45.4574 49.4852 43.6749V40.6545C49.4852 40.1969 49.7549 40.125 49.8854 40.125C50.0159 40.125 50.2834 40.1969 50.2834 40.6545V45.4574Z" fill="#666666"/>
<path d="M52.0796 41.7022C52.0796 41.4429 52.0665 41.0136 52.0557 40.6257C52.0557 40.1899 52.3145 40.1245 52.4319 40.1245C52.5494 40.1245 52.806 40.1811 52.819 40.6257L52.843 41.371H52.8647C53.0048 40.9994 53.2508 40.6774 53.5721 40.4449C53.8935 40.2124 54.276 40.0798 54.672 40.0635C55.2701 40.0635 55.9987 40.3359 56.3619 41.4821C56.7382 40.5647 57.4059 40.0635 58.2867 40.0635C59.683 40.0635 60.3746 41.1683 60.3746 42.831V46.516C60.3746 46.9736 60.1049 47.0455 59.9766 47.0455C59.8483 47.0455 59.5786 46.9736 59.5786 46.516V43.2211C59.5786 41.8155 59.1915 40.8698 58.1584 40.8698C57.0079 40.8698 56.5968 42.1163 56.5968 43.3649V46.5051C56.5968 46.9627 56.3271 47.0346 56.1988 47.0346C56.0705 47.0346 55.7986 46.9627 55.7986 46.5051V43.0184C55.7986 41.7109 55.542 40.8676 54.4741 40.8676C53.7108 40.8676 52.8778 41.7 52.8778 43.4826V46.4942C52.8778 46.9518 52.6081 47.0237 52.4776 47.0237C52.3471 47.0237 52.0796 46.9518 52.0796 46.4942V41.7022Z" fill="#666666"/>
<path d="M66.3603 46.3049C66.3733 46.4182 66.3842 46.5228 66.3842 46.5773C66.3842 46.878 66.2189 47.0349 66.0318 47.0349C65.9035 47.0349 65.7034 46.963 65.6556 46.549C65.6338 46.318 65.6208 46.1132 65.6208 45.8451H65.599C65.0923 46.7342 64.4833 47.1069 63.6025 47.1069C62.7695 47.1069 61.7017 46.5621 61.7017 45.0715C61.7017 43.0057 63.5677 42.8204 65.5751 42.8204V42.6025C65.5751 41.441 65.0575 40.8592 64.1071 40.8592C63.5839 40.8592 63.0805 41.0595 62.6999 41.4192C62.6225 41.4922 62.523 41.5375 62.4172 41.5478C62.241 41.5478 62.1018 41.3887 62.1018 41.1468C62.1021 41.0798 62.1158 41.0134 62.1419 40.9517C62.168 40.89 62.2062 40.8341 62.2541 40.7873C62.5119 40.5415 62.8156 40.3492 63.1478 40.2213C63.4799 40.0934 63.834 40.0325 64.1897 40.042C65.375 40.042 66.3255 40.8439 66.3255 42.4805V45.418C66.322 45.714 66.3336 46.0101 66.3603 46.3049ZM65.3402 43.5831C64.0353 43.5831 62.5238 43.7553 62.5238 45.0301C62.5238 45.9911 63.1915 46.3071 63.8135 46.3071C64.9401 46.3071 65.5751 45.2742 65.5751 44.0843V43.5831H65.3402Z" fill="#666666"/>
<path d="M68.0737 36.5247C68.0737 36.067 68.3434 35.9951 68.4717 35.9951C68.6001 35.9951 68.8697 36.067 68.8697 36.5247V41.3864H68.8937C69.0874 40.9969 69.3829 40.6673 69.7485 40.4325C70.1142 40.1977 70.5366 40.0664 70.9707 40.0527C72.6845 40.0527 73.8111 41.6021 73.8111 43.5808C73.8111 45.5595 72.6845 47.1067 70.9707 47.1067C70.5397 47.0934 70.1201 46.9653 69.755 46.7355C69.3899 46.5057 69.0926 46.1825 68.8937 45.7992H68.8697V46.5031C68.8697 46.9607 68.6001 47.0326 68.4717 47.0326C68.3434 47.0326 68.0737 46.9607 68.0737 46.5031V36.5247ZM70.888 40.8699C69.657 40.8699 68.7762 42.0467 68.7762 43.5808C68.7762 45.1149 69.657 46.2764 70.888 46.2764C72.2147 46.2764 72.9651 45.0714 72.9651 43.5808C72.9651 42.0903 72.206 40.8699 70.8772 40.8699H70.888Z" fill="#666666"/>
<path d="M75.2904 43.8661C75.2376 43.8664 75.1854 43.8555 75.1371 43.8342C75.0887 43.8128 75.0455 43.7814 75.0102 43.7421C74.9748 43.7028 74.9482 43.6564 74.932 43.6061C74.9159 43.5557 74.9105 43.5025 74.9164 43.4499C74.9118 43.3983 74.9181 43.3463 74.9349 43.2973C74.9517 43.2483 74.9786 43.2035 75.0139 43.1656C75.0492 43.1278 75.0921 43.0978 75.1398 43.0777C75.1874 43.0576 75.2387 43.0478 75.2904 43.0489H77.3327C77.3844 43.0478 77.4358 43.0576 77.4836 43.0777C77.5313 43.0978 77.5743 43.1277 77.6098 43.1655C77.6453 43.2033 77.6724 43.2482 77.6895 43.2972C77.7066 43.3461 77.7132 43.3982 77.7089 43.4499C77.7148 43.5027 77.7094 43.5561 77.6931 43.6066C77.6768 43.6571 77.6499 43.7036 77.6144 43.7429C77.5788 43.7823 77.5353 43.8136 77.4867 43.8349C77.4382 43.8561 77.3856 43.8667 77.3327 43.8661H75.2904Z" fill="#666666"/>
<path d="M77.6021 49.9179C77.6021 49.6738 77.7325 49.5017 77.9305 49.5017C78.037 49.5017 78.1653 49.5452 78.2828 49.5452C78.9048 49.5452 79.0223 48.9569 79.0223 48.1113V40.6542C79.0223 40.1966 79.2919 40.1247 79.4203 40.1247C79.5486 40.1247 79.8204 40.1966 79.8204 40.6542V48.2682C79.8204 49.3448 79.5029 50.3755 78.2589 50.3755C77.8717 50.3755 77.6021 50.2622 77.6021 49.9179ZM79.4203 38.3312C79.2786 38.3595 79.1317 38.3433 78.9996 38.2847C78.8675 38.226 78.7567 38.1279 78.6825 38.0037C78.6083 37.8796 78.5741 37.7354 78.5849 37.5911C78.5956 37.4468 78.6506 37.3093 78.7423 37.1975C78.834 37.0856 78.9581 37.005 79.0973 36.9666C79.2366 36.9282 79.3843 36.9338 79.5203 36.9828C79.6562 37.0318 79.7737 37.1217 79.8566 37.2402C79.9396 37.3587 79.9839 37.5001 79.9836 37.6448C79.9965 37.81 79.945 37.9738 79.84 38.1018C79.735 38.2298 79.5845 38.312 79.4203 38.3312Z" fill="#666666"/>
<path d="M80.4883 49.9179C80.4883 49.6738 80.6188 49.5017 80.8167 49.5017C80.9233 49.5017 81.0516 49.5452 81.169 49.5452C81.791 49.5452 81.9085 48.9569 81.9085 48.1113V40.6542C81.9085 40.1966 82.1782 40.1247 82.3087 40.1247C82.4392 40.1247 82.7067 40.1966 82.7067 40.6542V48.2682C82.7067 49.3448 82.3891 50.3755 81.1473 50.3755C80.7601 50.3755 80.4883 50.2622 80.4883 49.9179ZM82.3087 38.3312C82.167 38.3595 82.0201 38.3433 81.888 38.2847C81.7559 38.226 81.6451 38.1279 81.5709 38.0037C81.4967 37.8796 81.4625 37.7354 81.4733 37.5911C81.484 37.4468 81.539 37.3093 81.6307 37.1975C81.7224 37.0856 81.8465 37.005 81.9857 36.9666C82.125 36.9282 82.2727 36.9338 82.4087 36.9828C82.5446 37.0318 82.6621 37.1217 82.745 37.2402C82.828 37.3587 82.8723 37.5001 82.872 37.6448C82.8849 37.81 82.8334 37.9738 82.7284 38.1018C82.6234 38.2298 82.4729 38.312 82.3087 38.3312Z" fill="#666666"/>
<path d="M84.4788 41.7022C84.4788 41.4429 84.468 41.0136 84.4549 40.6257C84.444 40.1899 84.7137 40.1245 84.8312 40.1245C84.9486 40.1245 85.2052 40.1811 85.2183 40.6257L85.2422 41.371H85.264C85.404 40.9994 85.65 40.6774 85.9714 40.4449C86.2927 40.2124 86.6753 40.0798 87.0713 40.0635C87.6694 40.0635 88.398 40.3359 88.7612 41.4821C89.1374 40.5647 89.8051 40.0635 90.686 40.0635C92.0822 40.0635 92.776 41.1683 92.776 42.831V46.516C92.776 46.9736 92.5042 47.0455 92.3759 47.0455C92.2475 47.0455 91.9778 46.9736 91.9778 46.516V43.2211C91.9778 41.8155 91.5907 40.8698 90.5576 40.8698C89.4071 40.8698 88.9961 42.1163 88.9961 43.3649V46.5051C88.9961 46.9627 88.7264 47.0346 88.5981 47.0346C88.4698 47.0346 88.1979 46.9627 88.1979 46.5051V43.0184C88.1979 41.7109 87.9413 40.8676 86.8734 40.8676C86.11 40.8676 85.277 41.7 85.277 43.4826V46.4942C85.277 46.9518 85.0073 47.0237 84.8768 47.0237C84.7463 47.0237 84.4788 46.9518 84.4788 46.4942V41.7022Z" fill="#666666"/>
<path d="M94.9122 47.0347C94.7817 47.0347 94.512 46.9628 94.512 46.5051V41.711C94.512 41.4516 94.5012 40.8633 94.4881 40.6344C94.4772 40.1986 94.7469 40.1332 94.8644 40.1332C94.9818 40.1332 95.2406 40.1899 95.2515 40.6344L95.2754 41.3797H95.2993C95.6038 40.6061 96.2846 40.0722 97.0588 40.0722C97.1747 40.0667 97.2903 40.086 97.3981 40.1289C97.483 40.1804 97.5492 40.2578 97.5869 40.3498C97.6246 40.4418 97.6318 40.5435 97.6074 40.6399C97.583 40.7364 97.5284 40.8224 97.4516 40.8853C97.3747 40.9483 97.2798 40.9849 97.1806 40.9897C97.0632 40.9897 96.9936 40.9766 96.9109 40.9766C96.0671 40.9766 95.3037 41.7219 95.3037 43.5131V46.5247C95.3102 46.9628 95.0427 47.0347 94.9122 47.0347Z" fill="#666666"/>
<path d="M98.5831 48.9128C98.4656 49.1133 98.3482 49.1569 98.2546 49.1569C98.2017 49.1537 98.1499 49.1397 98.1025 49.1157C98.0551 49.0917 98.0132 49.0583 97.9791 49.0175C97.9451 48.9767 97.9198 48.9293 97.9047 48.8783C97.8896 48.8274 97.8851 48.7738 97.8914 48.721C97.8952 48.6046 97.9273 48.4909 97.985 48.3898C98.8795 46.6621 99.3465 44.7444 99.3465 42.798C99.3465 40.8517 98.8795 38.9339 97.985 37.2063C97.9274 37.1059 97.8953 36.9929 97.8914 36.8772C97.8851 36.8244 97.8896 36.7709 97.9047 36.7199C97.9198 36.6689 97.9451 36.6216 97.9791 36.5808C98.0132 36.5399 98.0551 36.5065 98.1025 36.4826C98.1499 36.4586 98.2017 36.4446 98.2546 36.4414C98.3482 36.4414 98.4721 36.4828 98.5831 36.6833C99.5923 38.5604 100.121 40.6593 100.121 42.7915C100.121 44.9237 99.5923 47.0226 98.5831 48.8997V48.9128Z" fill="#666666"/>
<path d="M97.6526 13.5108C98.006 13.5138 98.3506 13.6214 98.6431 13.8202C98.9356 14.0189 99.163 14.2999 99.2965 14.6277C99.4301 14.9556 99.4639 15.3157 99.3938 15.6628C99.3236 16.0098 99.1526 16.3284 98.9022 16.5783C98.6519 16.8283 98.3333 16.9985 97.9867 17.0675C97.6401 17.1365 97.2808 17.1013 96.9541 16.9663C96.6273 16.8313 96.3477 16.6025 96.1504 16.3087C95.9531 16.0149 95.8469 15.6692 95.8452 15.3151C95.8452 15.0776 95.892 14.8424 95.9829 14.6231C96.0738 14.4038 96.2071 14.2046 96.375 14.0369C96.5429 13.8693 96.7422 13.7365 96.9614 13.6462C97.1807 13.5559 97.4155 13.5099 97.6526 13.5108ZM97.6526 16.8383C97.9537 16.8383 98.248 16.7489 98.4984 16.5813C98.7487 16.4136 98.9439 16.1754 99.0591 15.8967C99.1743 15.6179 99.2045 15.3112 99.1457 15.0153C99.087 14.7194 98.942 14.4476 98.7291 14.2343C98.5162 14.021 98.2449 13.8757 97.9496 13.8168C97.6542 13.758 97.3481 13.7882 97.07 13.9036C96.7918 14.0191 96.554 14.2146 96.3867 14.4654C96.2194 14.7163 96.1301 15.0112 96.1301 15.3129C96.1301 15.7175 96.2905 16.1055 96.576 16.3916C96.8615 16.6776 97.2488 16.8383 97.6526 16.8383ZM96.9479 14.5045C96.9425 14.4746 96.9444 14.444 96.9534 14.415C96.9624 14.3861 96.9783 14.3598 96.9997 14.3384C97.021 14.317 97.0473 14.3011 97.0761 14.292C97.105 14.283 97.1356 14.2811 97.1654 14.2865H97.6656C98.0462 14.2865 98.4181 14.4434 98.4181 14.8815C98.4209 15.0143 98.3748 15.1435 98.2885 15.2444C98.2023 15.3452 98.0819 15.4108 97.9505 15.4284L98.3855 16.0822C98.4096 16.1168 98.4232 16.1576 98.4246 16.1998C98.4252 16.2233 98.4212 16.2467 98.4128 16.2686C98.4043 16.2905 98.3917 16.3105 98.3755 16.3275C98.3593 16.3445 98.34 16.3581 98.3186 16.3676C98.2972 16.3771 98.2741 16.3823 98.2507 16.3829C98.2127 16.3841 98.1753 16.3742 98.1428 16.3545C98.1104 16.3348 98.0844 16.306 98.068 16.2718L97.5808 15.472H97.3198V16.1781C97.3198 16.2266 97.3005 16.2732 97.2663 16.3075C97.232 16.3418 97.1856 16.3611 97.1371 16.3611C97.0887 16.3611 97.0422 16.3418 97.0079 16.3075C96.9737 16.2732 96.9544 16.2266 96.9544 16.1781L96.9479 14.5045ZM97.6004 15.18C97.807 15.18 98.0353 15.1233 98.0353 14.8771C98.0353 14.6308 97.8418 14.6003 97.6526 14.6003H97.3198V15.18H97.6004Z" fill="#C02C57"/>
</svg>
