<?xml version="1.0" encoding="utf-8" ?>
<svg xmlns="http://www.w3.org/2000/svg" xmlns:xlink="http://www.w3.org/1999/xlink" width="32" height="32">
	<path fill="#046183" transform="translate(-2.28882e-05 -1.14441e-05)" d="M12.329962 17.936342C12.339296 18.948208 12.799656 19.843777 13.601259 20.428593C14.718548 21.243889 16.248859 21.384644 17.549826 20.99106C18.351318 20.748463 19.019024 20.257038 19.497496 19.575939C20.025415 18.824574 20.257318 17.995047 20.388437 17.132498C20.392105 17.108593 20.406216 17.081354 20.412884 17.084356C20.575783 17.159071 20.915691 17.436357 21.062922 17.578892C22.266548 18.744522 22.219101 20.693983 21.233599 21.987249C20.461109 23.000893 19.351154 23.678658 18.101524 23.943159C16.468761 24.288601 14.52387 24.206215 12.978001 23.53223C11.402351 22.84524 10.386625 21.567427 9.8209248 19.967855C9.1481075 18.06498 9.0665474 15.717487 9.3878994 13.736673C9.5767994 12.572712 9.9531546 11.428429 10.607527 10.449585C11.52447 9.0779352 12.897996 8.295105 14.513091 8.0048094C16.050848 7.7283001 17.839731 7.8328109 19.290596 8.4452C20.443775 8.9281731 21.387274 9.7556992 22.021978 10.834496C22.388334 11.447552 22.642904 12.094185 22.84136 12.801413L24.505569 12.35902C24.259111 11.443105 23.900423 10.579 23.397615 9.7767124C22.28455 8.0103683 20.631119 6.8589697 18.594555 6.3883376C16.611326 5.929935 14.301745 6.0205483 12.408411 6.8103833C9.6542482 7.9593358 8.2008295 10.493724 7.7166896 13.348649C7.4153385 15.125112 7.4177833 16.923809 7.7250233 18.699383C8.3655062 22.399845 10.541079 25.129023 14.368416 25.743969C15.703938 25.958549 17.057907 25.936314 18.384098 25.668478C20.071419 25.327816 21.570618 24.404675 22.606346 23.035248C23.698744 21.590998 23.978649 19.684452 23.349169 17.986818C22.860806 16.669981 21.764519 15.712707 20.476776 15.160245C20.411772 14.240883 20.237539 13.368217 19.758289 12.561815C19.286484 11.771202 18.561775 11.203286 17.674833 10.93467C16.809448 10.672615 15.898617 10.652492 15.016232 10.850395C13.995282 11.096663 13.120008 11.697711 12.549975 12.58005L13.968392 13.552668C14.297523 13.051349 14.774884 12.721695 15.346918 12.568153C15.947509 12.420059 16.563435 12.431399 17.156136 12.602397C18.124748 12.90181 18.541773 13.687754 18.696226 14.641915C17.756727 14.497268 16.835005 14.464581 15.895617 14.561197C15.390698 14.613119 14.92456 14.730971 14.463199 14.918425C13.197013 15.432862 12.316739 16.500652 12.329962 17.936342M27.390739 27.235918C21.182039 33.529251 11.043552 33.596848 4.7535148 27.383011C-1.5201889 21.185295 -1.5940821 11.066088 4.5926166 4.7776475C10.772314 -1.5035661 20.879244 -1.6051862 27.181284 4.5549502C30.186237 7.4922609 31.922119 11.498585 31.997456 15.707815C32.074574 20.018665 30.41514 24.170414 27.390739 27.235918" fill-rule="evenodd"/>
	<path fill="white" transform="translate(7.49257 6.11137)" d="M9.5321226 13.219997C10.023262 13.081799 10.399062 12.780719 10.670967 12.370791C11.052546 11.765184 11.191109 11.040835 11.249557 10.322934C10.330392 10.135816 9.4160042 10.095345 8.4947281 10.195965C7.9221382 10.25856 7.2799892 10.477033 6.8947444 10.91153C6.3507123 11.525032 6.4631634 12.45162 7.1347585 12.918806C7.8033533 13.383768 8.743187 13.441916 9.5321226 13.219997M4.8374004 11.825C4.8241777 10.38931 5.704452 9.3214092 6.9706378 8.8070822C7.4319983 8.6195192 7.898026 8.5016661 8.4030552 8.4497442C9.3423328 8.3532381 10.264166 8.3858147 11.203666 8.5304623C11.049101 7.5763001 10.632076 6.7903566 9.6635742 6.4909439C9.0708723 6.3199463 8.4549475 6.3087173 7.8543563 6.4566998C7.2823229 6.6102419 6.8049612 6.9398961 6.4758306 7.4413257L5.0573025 6.4687076C5.6274471 5.5862579 6.5027213 4.9852095 7.5235591 4.7390532C8.4059448 4.5411496 9.3167763 4.5612736 10.182272 4.823329C11.069213 5.0919437 11.793922 5.659749 12.265728 6.4503627C12.744979 7.2567639 12.919211 8.1294298 12.984215 9.0489025C14.271847 9.6013651 15.368244 10.55864 15.856496 11.875477C16.486088 13.573 16.206182 15.479545 15.113785 16.923906C14.077946 18.293333 12.578747 19.216364 10.891425 19.557135C9.5652351 19.824972 8.2112665 19.847097 6.8758545 19.632517C3.0485172 19.01757 0.87294441 16.288504 0.23246217 12.58804C-0.074889302 10.812468 -0.077222772 9.0136585 0.22401723 7.237196C0.70826805 4.3822708 2.1616871 1.8479939 4.9158497 0.69904155C6.8091836 -0.090793669 9.1187649 -0.1814068 11.101993 0.27688441C13.138557 0.74751681 14.791877 1.8989151 15.905054 3.6653709C16.407862 4.4675474 16.766438 5.3316517 17.012897 6.2475672L15.348799 6.6899595C15.150343 5.9828434 14.895772 5.3362103 14.529417 4.7231541C13.894713 3.6442463 12.951102 2.8168316 11.797923 2.3337469C10.34717 1.7213578 8.5582867 1.6169581 7.0205297 1.893356C5.4054341 2.1837628 4.0319085 2.9664824 3.1148546 4.338243C2.4605937 5.3169761 2.0842381 6.4612584 1.8953381 7.6253314C1.5738747 9.6060343 1.6554351 11.953637 2.3283637 13.856513C2.8940637 15.456085 3.9096792 16.733896 5.4853277 17.420778C7.0313082 18.094761 8.9762001 18.177259 10.608852 17.831705C11.858481 17.567316 12.968436 16.889551 13.741037 15.875796C14.72654 14.582642 14.773987 12.633181 13.57036 11.46755C13.42313 11.324904 13.08322 11.047729 12.920322 10.973014C12.913544 10.969901 12.899543 10.997141 12.895876 11.021156C12.764647 11.883593 12.532855 12.713231 12.004935 13.464598C11.526463 14.145697 10.858756 14.63712 10.057153 14.879607C8.756299 15.273302 7.225986 15.132546 6.1085868 14.31725C5.3070951 13.732434 4.8466234 12.836754 4.8374004 11.825" fill-rule="evenodd"/>
	<path fill="#046183" transform="translate(14.0419 16.2538)" d="M2.9827752 3.0776017C2.1938398 3.2995203 1.2540064 3.2413723 0.58541143 2.7764101C-0.086183786 2.3092244 -0.19863488 1.3826357 0.34539723 0.7691347C0.7306422 0.33463639 1.3727912 0.11616425 1.9453806 0.053568922C2.8666573 -0.047050569 3.7810445 -0.0065804101 4.7002096 0.18053849C4.6417618 0.89843911 4.5031981 1.6227883 4.1216202 2.2283952C3.8497152 2.6383224 3.4739153 2.9394026 2.9827752 3.0776017" fill-rule="evenodd"/>
</svg>
