<?xml version="1.0" encoding="UTF-8"?>
<svg width="27px" height="27px" viewBox="0 0 27 27" version="1.1" xmlns="http://www.w3.org/2000/svg" xmlns:xlink="http://www.w3.org/1999/xlink">
    <title>tiktok-logo-lowernav-27-desktop</title>
    <g id="Build-Kit" stroke="none" stroke-width="1" fill="none" fill-rule="evenodd">
        <g id="tiktok-logo-lowernav-27-desktop">
            <path d="M27,13.5 C27,20.955825 20.955825,27 13.5,27 C6.044175,27 0,20.955825 0,13.5 C0,6.044175 6.044175,0 13.5,0 C20.955825,0 27,6.044175 27,13.5" id="Circle" fill="#046183"></path>
            <path d="M18.8510435,8.22526903 C17.9083749,7.60679559 17.2280052,6.61729231 17.0158049,5.46382039 C16.9699261,5.21456999 16.9447422,4.95809233 16.9447422,4.69565217 L13.9361845,4.69565217 L13.9313363,16.8280213 C13.880744,18.1866572 12.7694644,19.2770712 11.4071537,19.2770712 C10.9837407,19.2770712 10.5850178,19.1705594 10.2340142,18.9846831 C9.4290267,18.5584098 8.87812292,17.7093865 8.87812292,16.7323051 C8.87812292,15.3291311 10.012701,14.1874938 11.4071537,14.1874938 C11.6674773,14.1874938 11.9171617,14.2306768 12.1533787,14.3051628 L12.1533787,11.9316829 L12.1533787,11.2146024 C11.9089466,11.1811312 11.6605641,11.1601721 11.4071537,11.1601721 C8.35366001,11.1601721 5.86956522,13.6598581 5.86956522,16.7323051 C5.86956522,18.6174476 6.80558988,20.2857268 8.23362117,21.2945178 C9.13305957,21.929885 10.2271458,22.3043478 11.4071537,22.3043478 C14.4606025,22.3043478 16.9447422,19.8047973 16.9447422,16.7323051 L16.9447422,10.5801839 C18.1247501,11.4324142 19.5704236,11.9345738 21.1304348,11.9345738 L21.1304348,9.58173683 L21.1304348,8.90729724 C20.290118,8.90729724 19.5074414,8.65592384 18.8510435,8.22526903" id="Logo" fill="#FFFFFF"></path>
        </g>
    </g>
</svg>