<svg width="32" height="32" viewBox="0 0 32 32" fill="none" xmlns="http://www.w3.org/2000/svg">
<path fill-rule="evenodd" clip-rule="evenodd" d="M26.3897 7.21961C27.5365 7.52769 28.4436 8.43485 28.7517 9.58161C29.3165 11.6698 29.3337 16.0001 29.3337 16.0001C29.3337 16.0001 29.3337 20.3476 28.7688 22.4186C28.4607 23.5654 27.5536 24.4725 26.4068 24.7806C24.3358 25.3454 16.0003 25.3454 16.0003 25.3454C16.0003 25.3454 7.66485 25.3454 5.59382 24.7806C4.44705 24.4725 3.53991 23.5654 3.23182 22.4186C2.66699 20.3304 2.66699 16.0001 2.66699 16.0001C2.66699 16.0001 2.66699 11.6698 3.2147 9.59873C3.52279 8.45196 4.42994 7.54482 5.57671 7.23673C7.64774 6.6719 15.9832 6.65479 15.9832 6.65479C15.9832 6.65479 24.3187 6.65479 26.3897 7.21961ZM20.2451 16.0001L13.3302 20.0052V11.995L20.2451 16.0001Z" fill="#41748D"/>
</svg>
